<?xml version="1.0" encoding="UTF-8"?>
<!DOCTYPE svg PUBLIC "-//W3C//DTD SVG 1.1//EN" "http://www.w3.org/Graphics/SVG/1.1/DTD/svg11.dtd">
<svg xmlns="http://www.w3.org/2000/svg" xml:space="preserve" width="7.4506mm" height="9.3132mm" style="shape-rendering:geometricPrecision; text-rendering:geometricPrecision; image-rendering:optimizeQuality; fill-rule:evenodd; clip-rule:evenodd"
viewBox="0 0 7.4506 9.3132"
 xmlns:xlink="http://www.w3.org/1999/xlink">
 <defs>
  <style type="text/css">
   <![CDATA[
    .fil0 {fill:#B52822}
    .fil1 {fill:#DB3226}
    .fil2 {fill:#FFF500}
    .fil3 {fill:#1F1A17;fill-rule:nonzero}
   ]]>
  </style>
 </defs>
 <g>
  <metadata id="CorelCorpID_0Corel-Layer"/>
  <path class="fil0" d="M0.8297 0l5.825 0c0.4006,0 0.7282,0.2418 0.7282,0.5376l0 8.238c0,0.2958 -0.3276,0.5376 -0.7282,0.5376l-5.825 0c-0.4006,0 -0.7282,-0.2418 -0.7282,-0.5376l0 -8.238c0,-0.2958 0.3276,-0.5376 0.7282,-0.5376z"/>
  <path class="fil1" d="M0.8297 0l5.825 0c0.4006,0 0.7282,0.2419 0.7282,0.5376l0 2.904c0,0.5009 -2.5226,1.3044 -3.5513,1.3044 -1.0513,0 -3.7301,-0.8685 -3.7301,-1.3044l0 -2.904c0,-0.2958 0.3276,-0.5376 0.7282,-0.5376z"/>
  <path class="fil2" d="M3.7422 3.2167c0.748,0 1.3547,0.6067 1.3547,1.3547 0,0.748 -0.6067,1.3547 -1.3547,1.3547 -0.748,0 -1.3547,-0.6067 -1.3547,-1.3547 0,-0.748 0.6067,-1.3547 1.3547,-1.3547z"/>
  <path class="fil3" d="M2.5985 4.5789c0,-0.0947 0.0254,-0.1688 0.0763,-0.2223 0.0508,-0.0535 0.1164,-0.0803 0.1969,-0.0803 0.0526,0 0.1002,0.0126 0.1424,0.0377 0.0422,0.0252 0.0745,0.0603 0.0967,0.1053 0.0222,0.0449 0.0332,0.096 0.0332,0.153 0,0.0579 -0.0116,0.1097 -0.0349,0.1553 -0.0234,0.0457 -0.0565,0.0802 -0.0992,0.1037 -0.0429,0.0235 -0.089,0.0352 -0.1386,0.0352 -0.0538,0 -0.1017,-0.0129 -0.144,-0.0389 -0.0423,-0.0259 -0.0743,-0.0614 -0.0961,-0.1063 -0.0218,-0.0447 -0.0327,-0.0923 -0.0327,-0.1424zm0.0778 0.0012c0,0.0688 0.0185,0.1229 0.0554,0.1625 0.0371,0.0396 0.0834,0.0593 0.1392,0.0593 0.0569,0 0.1036,-0.0199 0.1403,-0.0599 0.0366,-0.0399 0.0551,-0.0966 0.0551,-0.1701 0,-0.0463 -0.008,-0.0869 -0.0236,-0.1215 -0.0157,-0.0347 -0.0387,-0.0615 -0.0688,-0.0806 -0.0303,-0.019 -0.0642,-0.0286 -0.1018,-0.0286 -0.0535,0 -0.0995,0.0183 -0.138,0.0551 -0.0385,0.0367 -0.0578,0.098 -0.0578,0.1838zm0.6094 0.2767l0 -0.5704 0.2152 0c0.0378,0 0.0668,0.0018 0.0867,0.0054 0.028,0.0046 0.0515,0.0135 0.0705,0.0267 0.0189,0.013 0.0341,0.0315 0.0457,0.055 0.0116,0.0236 0.0173,0.0495 0.0173,0.0778 0,0.0485 -0.0154,0.0897 -0.0463,0.1233 -0.0309,0.0334 -0.0867,0.0503 -0.1673,0.0503l-0.1464 0 0 0.2319 -0.0754 0zm0.0754 -0.2992l0.1476 0c0.0487,0 0.0834,-0.0091 0.1039,-0.0273 0.0204,-0.0182 0.0306,-0.0437 0.0306,-0.0766 0,-0.0239 -0.0059,-0.0444 -0.018,-0.0614 -0.0121,-0.017 -0.0279,-0.0281 -0.0477,-0.0336 -0.0128,-0.0033 -0.0361,-0.005 -0.0704,-0.005l-0.146 0 0 0.2039zm0.502 0.2992l0 -0.5704 0.4124 0 0 0.0673 -0.337 0 0 0.1746 0.3156 0 0 0.067 -0.3156 0 0 0.1942 0.3503 0 0 0.0673 -0.4257 0zm0.5734 0l0 -0.5704 0.0774 0 0.2997 0.4478 0 -0.4478 0.0723 0 0 0.5704 -0.0774 0 -0.2996 -0.4483 0 0.4483 -0.0724 0z"/>
 </g>
</svg>
