<?xml version="1.0" encoding="UTF-8"?>
<!DOCTYPE svg PUBLIC "-//W3C//DTD SVG 1.1//EN" "http://www.w3.org/Graphics/SVG/1.1/DTD/svg11.dtd">
<!-- Creator: CorelDRAW -->
<svg xmlns="http://www.w3.org/2000/svg" xml:space="preserve" width="7.4506mm" height="9.3132mm" style="shape-rendering:geometricPrecision; text-rendering:geometricPrecision; image-rendering:optimizeQuality; fill-rule:evenodd; clip-rule:evenodd"
viewBox="0 0 7.4506 9.3132"
 xmlns:xlink="http://www.w3.org/1999/xlink">
 <defs>
  <style type="text/css">
   <![CDATA[
    .str0 {stroke:#FFF500;stroke-width:0.2}
    .fil1 {fill:none}
    .fil0 {fill:#DB3226}
   ]]>
  </style>
 </defs>
 <g id="图层_x0020_1">
  <metadata id="CorelCorpID_0Corel-Layer"/>
  <path class="fil0" d="M0.8128 0l5.825 0c0.4006,0 0.7282,0.2418 0.7282,0.5376l0 8.238c0,0.2958 -0.3276,0.5376 -0.7282,0.5376l-5.825 0c-0.4006,0 -0.7282,-0.2418 -0.7282,-0.5376l0 -8.238c0,-0.2958 0.3276,-0.5376 0.7282,-0.5376z"/>
  <g id="_147793928">
   <path id="_88685672" class="fil1 str0" d="M3.7253 2.516l1.3576 0c0.0506,0 0.092,0.0374 0.092,0.0831l0 0.6654c0,0.0457 -0.0414,0.0831 -0.092,0.0831l-1.3576 0 0 -0.8316z"/>
   <path id="_150874008" class="fil1 str0" d="M3.7253 2.516l-1.3576 0c-0.0506,0 -0.092,0.0374 -0.092,0.0831l0 0.6654c0,0.0457 0.0414,0.0831 0.092,0.0831l1.3576 0 0 -0.8316z"/>
   <path id="_115409392" class="fil1 str0" d="M2.5383 4.5595l1.187 0 0 -1.2115 -1.187 0c-0.0345,0 -0.0626,0.0252 -0.0626,0.0564l0 1.0987c0,0.0312 0.0281,0.0564 0.0626,0.0564z"/>
   <path id="_150877176" class="fil1 str0" d="M4.9123 4.5595l-1.187 0 0 -1.2115 1.187 0c0.0345,0 0.0626,0.0252 0.0626,0.0564l0 1.0987c0,0.0312 -0.0281,0.0564 -0.0626,0.0564z"/>
   <path id="_147794096" class="fil1 str0" d="M3.7093 2.5161c0.256,-0.3199 0.5056,-0.5544 0.7588,-0.5632 0.2522,-0.0418 0.5887,0.2467 0.2547,0.5632"/>
   <path id="_150877488" class="fil1 str0" d="M3.7093 2.5161c-0.256,-0.3199 -0.5055,-0.5544 -0.7587,-0.5632 -0.2522,-0.0418 -0.5887,0.2467 -0.2547,0.5632"/>
  </g>
 </g>
</svg>
