<?xml version="1.0" encoding="UTF-8"?>
<!DOCTYPE svg PUBLIC "-//W3C//DTD SVG 1.1//EN" "http://www.w3.org/Graphics/SVG/1.1/DTD/svg11.dtd">
<!-- Creator: CorelDRAW -->
<svg xmlns="http://www.w3.org/2000/svg" xml:space="preserve" width="5.9606mm" height="7.315mm" style="shape-rendering:geometricPrecision; text-rendering:geometricPrecision; image-rendering:optimizeQuality; fill-rule:evenodd; clip-rule:evenodd"
viewBox="0 0 1.82786 2.24319"
 xmlns:xlink="http://www.w3.org/1999/xlink">
 <defs>
  <style type="text/css">
   <![CDATA[
    .fil1 {fill:#1F1A17}
    .fil0 {fill:#940500}
    .fil2 {fill:#1F1A17;fill-rule:nonzero}
   ]]>
  </style>
    <clipPath id="id0">
     <path d="M-0 0l1.82786 0 0 2.24319 -1.82786 0 0 -2.24319z"/>
    </clipPath>
 </defs>
 <g id="图层_x0020_1">
  <metadata id="CorelCorpID_0Corel-Layer"/>
  <g id="_106561680">
   <g style="clip-path:url(#id0)">
    <image id="_32906408" transform="matrix(1 0 0 1 2.9803 1.1526)" x="-2.9803" y="-1.1526" width="1.82786" height="2.24319" xlink:href="未点击的地雷_Images\未点击的地雷_ImgID1.png"/>
   </g>
  </g>
  <path class="fil0" d="M0.249281 0.0830732l1.32929 0c0.0914449,0 0.166208,0.0539102 0.166208,0.119872l0 1.8373c0,0.0659618 -0.0747628,0.119872 -0.166208,0.119872l-1.32929 0c-0.0914449,0 -0.166208,-0.0539102 -0.166208,-0.119872l0 -1.8373c0,-0.0659618 0.0747628,-0.119872 0.166208,-0.119872z"/>
  <g id="_94038544">
   <path id="_106561488" class="fil1" d="M1.02199 0.966458c0.171789,0.134162 0.202301,0.382278 0.0681697,0.554066 -0.134162,0.171789 -0.382278,0.202332 -0.554097,0.0681697 -0.171758,-0.134162 -0.202301,-0.382278 -0.068139,-0.554066 0.134131,-0.171789 0.382278,-0.202332 0.554066,-0.0681697zm-0.215947 0.0446491l0.137903 0.107698 -0.000459984 0.000582647c-0.100951,-0.0573141 -0.22803,-0.0426252 -0.313219,0.0357255l-0.000858637 -0.000674644 0.10506 -0.13453c0.0172647,-0.0221099 0.0494637,-0.0260351 0.0715736,-0.00880103z"/>
   <rect id="_94039000" class="fil1" transform="matrix(0.651375 0.508665 -0.47811 0.612248 0.948389 0.835839)" width="0.33493" height="0.140203"/>
   <path id="_94038928" class="fil2" d="M1.04168 0.908684l0.0585407 -0.0749775 0.0009813 -0.00113463c0.00147195,-0.00156395 0.0646125,-0.0699483 0.132905,-0.0784427 0.0107023,0.00174794 0.0177861,0.0112236 0.0186447,0.0178474 0.000337322,0.00297457 0.00162528,0.0127569 -0.0126649,0.020546 -0.0453238,0.00496783 -0.101197,0.0568541 -0.108587,0.0662991l-0.058234 0.0745481 -0.0315856 -0.0246858z"/>
   <rect id="_94038856" class="fil1" transform="matrix(0.610275 0.780467 -0.707288 0.553054 1.09145 0.602903)" width="0.131893" height="0.0293777" rx="0.0146888" ry="0.0146888"/>
   <rect id="_94038784" class="fil1" transform="matrix(-0.251597 0.958261 -0.868411 -0.228007 1.28258 0.574634)" width="0.131893" height="0.0293777" rx="0.0146888" ry="0.0146888"/>
   <rect id="_94038712" class="fil1" transform="matrix(-0.865935 0.481375 -0.43624 -0.784742 1.41133 0.6868)" width="0.131893" height="0.0293777" rx="0.0146888" ry="0.0146888"/>
   <rect id="_94038640" class="fil1" transform="matrix(-0.966373 -0.218378 0.197902 -0.875763 1.42465 0.841438)" width="0.131893" height="0.0293777" rx="0.0146888" ry="0.0146888"/>
   <rect id="_94038568" class="fil1" transform="matrix(-0.601581 -0.787188 0.713379 -0.545175 1.33762 0.961595)" width="0.131893" height="0.0293777" rx="0.0146888" ry="0.0146888"/>
  </g>
 </g>
</svg>
