<?xml version="1.0" encoding="UTF-8"?>
<!DOCTYPE svg PUBLIC "-//W3C//DTD SVG 1.1//EN" "http://www.w3.org/Graphics/SVG/1.1/DTD/svg11.dtd">
<!-- Creator: CorelDRAW -->
<svg xmlns="http://www.w3.org/2000/svg" xml:space="preserve" width="5.9606mm" height="7.315mm" style="shape-rendering:geometricPrecision; text-rendering:geometricPrecision; image-rendering:optimizeQuality; fill-rule:evenodd; clip-rule:evenodd"
viewBox="0 0 6.01001 7.37563"
 xmlns:xlink="http://www.w3.org/1999/xlink">
 <defs>
  <style type="text/css">
   <![CDATA[
    .fil1 {fill:#1F1A17}
    .fil3 {fill:#E77817}
    .fil2 {fill:#FFF500}
    .fil0 {fill:#D60E00}
   ]]>
  </style>
    <clipPath id="id0">
     <path d="M-0 0l6.01001 0 0 7.37563 -6.01001 0 0 -7.37563z"/>
    </clipPath>
 </defs>
 <g id="图层_x0020_1">
  <metadata id="CorelCorpID_0Corel-Layer"/>
  <g id="_94037584">
   <g style="clip-path:url(#id0)">
    <image id="_106562808" transform="matrix(1 0 0 1 2.9803 3.95784)" x="-2.9803" y="-3.95784" width="6.01001" height="7.37563" xlink:href="点击的地雷_Images\点击的地雷_ImgID1.png"/>
   </g>
  </g>
  <path class="fil0" d="M0.819638 0.273145l4.37073 0c0.300672,0 0.546493,0.177257 0.546493,0.39414l0 6.04106c0,0.216883 -0.245821,0.39414 -0.546493,0.39414l-4.37073 0c-0.300672,0 -0.546493,-0.177257 -0.546493,-0.39414l0 -6.04106c0,-0.216883 0.245821,-0.39414 0.546493,-0.39414z"/>
  <polygon class="fil1" points="1.92291,3.71766 1.04973,4.69439 2.33207,4.41026 2.09038,5.6077 2.92071,4.77324 3.98859,6.05296 3.65585,4.50866 4.92277,4.8657 4.16937,3.96237 5.34312,3.64345 4.30408,3.18065 4.89504,2.30555 3.70173,2.579 3.59344,1.37601 2.95953,2.31422 1.91373,1.6297 2.17085,2.71038 0.914619,2.98564 "/>
  <polygon class="fil2" points="2.21007,3.6853 1.49872,4.43163 2.5794,4.19216 2.31463,5.14772 2.94511,4.44393 3.70415,5.49679 3.44522,4.28603 4.53538,4.62784 3.86729,3.78028 4.86489,3.60766 3.99373,3.21947 4.5136,2.55873 3.50522,2.78973 3.44048,1.90778 2.99613,2.61389 2.17609,2.02878 2.37775,2.87604 1.39275,3.09182 "/>
  <polygon class="fil3" points="2.45559,3.60907 1.92926,4.16121 2.72883,3.98405 2.53292,4.75277 2.96185,4.13267 3.47345,4.94929 3.28289,4.05352 4.17583,4.26052 3.68156,3.67935 4.41963,3.5516 3.77513,3.26444 4.1598,2.77562 3.41376,2.94652 3.36577,2.29406 3.03707,2.81645 2.43048,2.38349 2.57961,3.01035 1.85092,3.17006 "/>
  <polygon class="fil1" points="2.61409,3.55049 2.22489,3.99585 2.81615,3.82777 2.70221,4.39624 2.98847,3.93767 3.30517,4.54164 3.22592,3.87909 3.88635,4.08175 3.52074,3.60241 4.06663,3.50794 3.58991,3.29559 3.87445,2.93402 3.32271,3.06046 3.28722,2.57789 3.04412,2.96427 2.59554,2.64414 2.70584,3.10765 2.16691,3.22572 "/>
 </g>
</svg>
