<?xml version="1.0" encoding="UTF-8"?>
<!DOCTYPE svg PUBLIC "-//W3C//DTD SVG 1.1//EN" "http://www.w3.org/Graphics/SVG/1.1/DTD/svg11.dtd">
<!-- Creator: CorelDRAW -->
<svg xmlns="http://www.w3.org/2000/svg" xml:space="preserve" width="5.9606mm" height="7.315mm" style="shape-rendering:geometricPrecision; text-rendering:geometricPrecision; image-rendering:optimizeQuality; fill-rule:evenodd; clip-rule:evenodd"
viewBox="0 0 1.00109 1.22856"
 xmlns:xlink="http://www.w3.org/1999/xlink">
 <defs>
  <style type="text/css">
   <![CDATA[
    .str0 {stroke:#FFF500;stroke-width:0.0335901}
    .fil1 {fill:none}
    .fil0 {fill:#940500}
   ]]>
  </style>
    <clipPath id="id0">
     <path d="M-0 0l1.00109 0 0 1.22856 -1.00109 0 0 -1.22856z"/>
    </clipPath>
 </defs>
 <g id="图层_x0020_1">
  <metadata id="CorelCorpID_0Corel-Layer"/>
  <g id="_106562328">
   <g style="clip-path:url(#id0)">
    <image id="_32906672" transform="matrix(1 0 0 1 2.9803 0.614279)" x="-2.9803" y="-0.614279" width="1.00109" height="1.22856" xlink:href="未到点击的礼包_Images\未到点击的礼包_ImgID1.png"/>
   </g>
  </g>
  <path class="fil0" d="M0.136527 0.0454978l0.728032 0c0.0500829,0 0.0910292,0.0295257 0.0910292,0.0656519l0 1.00626c0,0.0361262 -0.0409464,0.0656519 -0.0910292,0.0656519l-0.728032 0c-0.0500829,0 -0.0910292,-0.0295257 -0.0910292,-0.0656519l0 -1.00626c0,-0.0361262 0.0409464,-0.0656519 0.0910292,-0.0656519z"/>
  <g id="_106561752">
   <path id="_106562136" class="fil1 str0" d="M0.500543 0.271459l0.200029 0c0.00745701,0 0.0135536,0.00550878 0.0135536,0.0122604l0 0.098016c0,0.00673482 -0.00609661,0.0122436 -0.0135536,0.0122436l-0.200029 0 0 -0.12252z"/>
   <path id="_106562064" class="fil1 str0" d="M0.500543 0.271459l-0.200029 0c-0.00745701,0 -0.0135536,0.00550878 -0.0135536,0.0122604l0 0.098016c0,0.00673482 0.00609661,0.0122436 0.0135536,0.0122436l0.200029 0 0 -0.12252z"/>
   <path id="_106561992" class="fil1 str0" d="M0.325639 0.572544l0.174904 0 0 -0.178515 -0.174904 0c-0.00505531,0 -0.00920369,0.0037453 -0.00920369,0.00831355l0 0.161888c0,0.00458505 0.00414838,0.00831355 0.00920369,0.00831355z"/>
   <path id="_106561920" class="fil1 str0" d="M0.675447 0.572544l-0.174904 0 0 -0.178515 0.174904 0c0.00505531,0 0.00920369,0.0037453 0.00920369,0.00831355l0 0.161888c0,0.00458505 -0.00414838,0.00831355 -0.00920369,0.00831355z"/>
   <path id="_106561848" class="fil1 str0" d="M0.498192 0.271459c0.0377217,-0.0471269 0.0744861,-0.0816744 0.111788,-0.0829676 0.0371675,-0.00616379 0.0867465,0.0363613 0.037537,0.0829676"/>
   <path id="_106561776" class="fil1 str0" d="M0.498192 0.271459c-0.0377217,-0.0471269 -0.0744861,-0.0816744 -0.111788,-0.0829676 -0.0371675,-0.00616379 -0.0867465,0.0363613 -0.037537,0.0829676"/>
  </g>
 </g>
</svg>
