<?xml version="1.0" encoding="UTF-8"?>
<!DOCTYPE svg PUBLIC "-//W3C//DTD SVG 1.1//EN" "http://www.w3.org/Graphics/SVG/1.1/DTD/svg11.dtd">
<!-- Creator: CorelDRAW -->
<svg xmlns="http://www.w3.org/2000/svg" xml:space="preserve" width="5.9606mm" height="7.315mm" style="shape-rendering:geometricPrecision; text-rendering:geometricPrecision; image-rendering:optimizeQuality; fill-rule:evenodd; clip-rule:evenodd"
viewBox="0 0 6.83429 8.38722"
 xmlns:xlink="http://www.w3.org/1999/xlink">
 <defs>
  <style type="text/css">
   <![CDATA[
    .str0 {stroke:#FFF500;stroke-width:0.229316}
    .fil1 {fill:none}
    .fil2 {fill:#FFF500}
    .fil0 {fill:#BF0D00}
   ]]>
  </style>
    <clipPath id="id0">
     <path d="M-0 0l6.83429 0 0 8.38722 -6.83429 0 0 -8.38722z"/>
    </clipPath>
 </defs>
 <g id="图层_x0020_1">
  <metadata id="CorelCorpID_0Corel-Layer"/>
  <g id="_141755720">
   <g style="clip-path:url(#id0)">
    <image id="_139854304" transform="matrix(1 0 0 1 -2.9803 14.7944)" x="2.9803" y="-14.7944" width="6.83429" height="8.38722" xlink:href="打开的礼包_Images\打开的礼包_ImgID1.png"/>
   </g>
  </g>
  <path class="fil0" d="M0.932053 0.310608l4.97019 0c0.34191,0 0.621445,0.201568 0.621445,0.448197l0 6.86961c0,0.246629 -0.279536,0.448197 -0.621445,0.448197l-4.97019 0c-0.34191,0 -0.621445,-0.201568 -0.621445,-0.448197l0 -6.86961c0,-0.246629 0.279536,-0.448197 0.621445,-0.448197z"/>
  <g id="_139260976">
   <path id="_139254032" class="fil1 str0" d="M1.74234 7.09181l0.994886 0 0 -1.76906 -1.13351 0c-0.0326775,0 -0.0635204,0.0372638 -0.0596221,0.082439l0.138621 1.60429c0.00389836,0.0450605 0.0269446,0.0823243 0.0596221,0.0823243z"/>
   <g>
    <path id="_139253960" class="fil1 str0" d="M5.01857 5.48844l0.517221 1.08019c0.0193772,0.0403595 0.00538892,0.0872546 -0.0310723,0.104912l-0.529146 0.253279c-0.0364612,0.0175426 -0.0818657,-0.00114658 -0.101243,-0.0412768l-0.517221 -1.08008 0.661461 -0.317029z"/>
    <path id="_139254488" class="fil1 str0" d="M5.01857 5.48844l-0.517221 -1.08008c-0.0192625,-0.0402449 -0.0647817,-0.0589341 -0.101243,-0.0413915l-0.529031 0.253394c-0.0365758,0.0175426 -0.0505641,0.064323 -0.0313016,0.104797l0.517336 1.08031 0.661461 -0.317029z"/>
    <path id="_139253792" class="fil1 str0" d="M5.01261 5.47583c0.351999,0.081751 0.633714,0.19102 0.737135,0.389034 0.129334,0.184714 0.0279765,0.562396 -0.350968,0.41724"/>
    <path id="_139253384" class="fil1 str0" d="M5.01261 5.47583c0.156967,-0.325513 0.248463,-0.613419 0.158916,-0.818198 -0.0627178,-0.216589 -0.420565,-0.374358 -0.545083,0.0119244"/>
   </g>
   <path id="_139262248" class="fil1 str0" d="M3.7328 7.09181l-0.994771 0 0 -1.76906 1.13351 0c0.0325628,0 0.0635204,0.0372638 0.0596221,0.082439l-0.138736 1.60429c-0.00389836,0.0450605 -0.0268299,0.0823243 -0.0596221,0.0823243z"/>
   <rect id="_139529688" class="fil2" x="2.62741" y="4.16558" width="0.207459" height="0.708794" rx="0.0803751" ry="0.0803751"/>
   <rect id="_139853920" class="fil2" transform="matrix(0.970805 0.850356 -0.850356 0.970805 3.53696 4.35517)" width="0.16075" height="0.549211" rx="0.0803751" ry="0.0803751"/>
   <rect id="_139853752" class="fil2" transform="matrix(-0.970805 0.850356 0.850356 0.970805 1.91888 4.35517)" width="0.16075" height="0.549211" rx="0.0803751" ry="0.0803751"/>
  </g>
 </g>
</svg>
