<?xml version="1.0" encoding="UTF-8"?>
<!DOCTYPE svg PUBLIC "-//W3C//DTD SVG 1.1//EN" "http://www.w3.org/Graphics/SVG/1.1/DTD/svg11.dtd">
<!-- Creator: CorelDRAW -->
<svg xmlns="http://www.w3.org/2000/svg" xml:space="preserve" width="5.9606mm" height="7.315mm" style="shape-rendering:geometricPrecision; text-rendering:geometricPrecision; image-rendering:optimizeQuality; fill-rule:evenodd; clip-rule:evenodd"
viewBox="0 0 1.46273 1.7951"
 xmlns:xlink="http://www.w3.org/1999/xlink">
 <defs>
  <style type="text/css">
   <![CDATA[
    .fil0 {fill:#B52822}
    .fil1 {fill:#F01000}
    .fil2 {fill:#FFF500}
    .fil3 {fill:#1F1A17;fill-rule:nonzero}
   ]]>
  </style>
     <clipPath id="id0">
      <path d="M-0 0l1.46273 0 0 1.7951 -1.46273 0 0 -1.7951z"/>
     </clipPath>
 </defs>
 <g id="图层_x0020_1">
  <metadata id="CorelCorpID_0Corel-Layer"/>
  <g id="_142356848">
   <g>
    <g style="clip-path:url(#id0)">
     <image id="_32907152" transform="matrix(1 0 0 1 -2.9803 0.960002)" x="2.9803" y="-0.960002" width="1.46273" height="1.7951" xlink:href="未打开的状态_Images\未打开的状态_ImgID1.png"/>
    </g>
   </g>
   <path id="_106562640" class="fil0" d="M0.199485 0.0664787l1.06376 0c0.073178,0 0.133006,0.0431412 0.133006,0.0959266l0 1.47028c0,0.0527854 -0.0598283,0.0959266 -0.133006,0.0959266l-1.06376 0c-0.073178,0 -0.133006,-0.0431412 -0.133006,-0.0959266l0 -1.47028c0,-0.0527854 0.0598283,-0.0959266 0.133006,-0.0959266z"/>
   <path id="_106562568" class="fil1" d="M0.199485 0.0664787l1.06376 0c0.073178,0 0.133006,0.0431903 0.133006,0.0959266l0 0.414847c0,0.0893499 -0.460688,0.336246 -0.648566,0.336246 -0.191976,0 -0.681204,-0.23335 -0.681204,-0.311142l0 -0.439952c0,-0.0527854 0.0598283,-0.0959266 0.133006,-0.0959266z"/>
   <path id="_106562496" class="fil2" d="M0.731363 0.547657c0.181645,0 0.328982,0.147338 0.328982,0.328982 0,0.181645 -0.147338,0.328982 -0.328982,0.328982 -0.181645,0 -0.328982,-0.147338 -0.328982,-0.328982 0,-0.181645 0.147338,-0.328982 0.328982,-0.328982z"/>
   <path id="_106562424" class="fil3" d="M0.455436 0.878456c0,-0.0228467 0.00613498,-0.0407363 0.0184049,-0.0536443 0.01227,-0.012908 0.0280982,-0.019362 0.0475093,-0.019362 0.0126871,0 0.0241718,0.00304295 0.0343559,0.00907977 0.0101841,0.0060859 0.0179632,0.0145522 0.0233375,0.0254234 0.0053497,0.0108221 0.00800001,0.0231411 0.00800001,0.036908 0,0.0139632 -0.00279755,0.026454 -0.00841719,0.0374725 -0.00564418,0.0110184 -0.0136442,0.0193375 -0.0239264,0.0250062 -0.0103558,0.00566872 -0.0214724,0.00849081 -0.0334479,0.00849081 -0.0129816,0 -0.0245399,-0.00311657 -0.0347485,-0.00937425 -0.0101841,-0.00625768 -0.0179141,-0.0148221 -0.0231657,-0.0256442 -0.00527608,-0.0107976 -0.00790186,-0.0222822 -0.00790186,-0.0343559zm0.018773 0.000294479c0,0.016589 0.00446627,0.0296442 0.0133743,0.0391903 0.00893253,0.00954603 0.0201227,0.0143068 0.0335706,0.0143068 0.0137424,0 0.0250062,-0.00480982 0.0338406,-0.014454 0.00883437,-0.00961965 0.0133006,-0.0233129 0.0133006,-0.0410308 0,-0.0111657 -0.00191411,-0.0209571 -0.00569326,-0.0293252 -0.00377915,-0.00836811 -0.00932517,-0.0148221 -0.016589,-0.0194356 -0.0073129,-0.00458897 -0.0154847,-0.00689572 -0.0245645,-0.00689572 -0.012908,0 -0.024,0.00441719 -0.0333007,0.0133006 -0.00927609,0.00883437 -0.0139387,0.0236319 -0.0139387,0.0443436zm0.147019 0.0667486l0 -0.13762 0.0519265 0c0.00910431,0 0.0160982,0.000441719 0.020908,0.00130062 0.00674848,0.0011043 0.0124172,0.00326381 0.0170062,0.006454 0.00456443,0.00314111 0.00822087,0.00758284 0.0110184,0.0132516 0.00282209,0.00569326 0.00419633,0.0119509 0.00419633,0.018773 0,0.0117055 -0.00373007,0.0216442 -0.0111902,0.0297424 -0.0074356,0.00807363 -0.020908,0.0121473 -0.0403436,0.0121473l-0.0353375 0 0 0.055951 -0.0181841 0zm0.0181841 -0.0721965l0.0356074 0c0.0117546,0 0.0201227,-0.00218405 0.0250798,-0.0065767 0.00490798,-0.00439265 0.00738652,-0.0105522 0.00738652,-0.0184786 0,-0.00576688 -0.00142332,-0.0107239 -0.00434357,-0.0148221 -0.00292025,-0.00409817 -0.00674848,-0.00677302 -0.0115092,-0.00809817 -0.00309203,-0.000809817 -0.00871167,-0.00120246 -0.0169816,-0.00120246l-0.0352393 0 0 0.049178zm0.121129 0.0721965l0 -0.13762 0.0994848 0 0 0.0162454 -0.0813008 0 0 0.0421105 0.0761474 0 0 0.0161718 -0.0761474 0 0 0.0468467 0.0845155 0 0 0.0162454 -0.1027 0zm0.138332 0l0 -0.13762 0.0186749 0 0.0722946 0.108025 0 -0.108025 0.0174479 0 0 0.13762 -0.0186749 0 -0.0722946 -0.108147 0 0.108147 -0.0174479 0z"/>
  </g>
 </g>
</svg>
